<svg width="24" height="24" viewBox="0 0 24 24" fill="none" xmlns="http://www.w3.org/2000/svg">
<path d="M9.61719 13.6994C9.61719 14.6694 10.3672 15.4494 11.2872 15.4494H13.1672C13.9672 15.4494 14.6172 14.7694 14.6172 13.9194C14.6172 13.0094 14.2172 12.6795 13.6272 12.4695L10.6172 11.4194C10.0272 11.2094 9.6272 10.8895 9.6272 9.96945C9.6272 9.12945 10.2772 8.43945 11.0772 8.43945H12.9572C13.8772 8.43945 14.6272 9.21945 14.6272 10.1895" stroke="#12B76A" stroke-width="1.5" stroke-linecap="round" stroke-linejoin="round"/>
<path d="M12.1172 7.44922V16.4492" stroke="#12B76A" stroke-width="1.5" stroke-linecap="round" stroke-linejoin="round"/>
<path d="M22.1172 11.9492C22.1172 17.4692 17.6372 21.9492 12.1172 21.9492C6.59719 21.9492 2.11719 17.4692 2.11719 11.9492C2.11719 6.42922 6.59719 1.94922 12.1172 1.94922" stroke="#12B76A" stroke-width="1.5" stroke-linecap="round" stroke-linejoin="round"/>
<path d="M17.1172 2.94922V6.94922H21.1172" stroke="#12B76A" stroke-width="1.5" stroke-linecap="round" stroke-linejoin="round"/>
<path d="M22.1172 1.94922L17.1172 6.94922" stroke="#12B76A" stroke-width="1.5" stroke-linecap="round" stroke-linejoin="round"/>
</svg>
